<svg id="Capa_1" enable-background="new 0 0 512 512" height="512" viewBox="0 0 512 512" width="512" xmlns="http://www.w3.org/2000/svg"><g><path d="m182.666 351.57h-29.95c-4.775-12.519-16.901-21.439-31.076-21.439-10.375 0-19.654 4.779-25.756 12.249-6.128-7.486-15.436-12.249-25.747-12.249-14.176 0-26.301 8.92-31.076 21.439h-21.561c-1.379 0-2.5-1.121-2.5-2.5v-28.155c0-1.379 1.121-2.5 2.5-2.5h43.833c4.143 0 7.5-3.357 7.5-7.5s-3.357-7.5-7.5-7.5h-31.542v-144.067h305.187v29.318c0 4.143 3.357 7.5 7.5 7.5s7.5-3.357 7.5-7.5v-59.357c0-7.688-6.255-13.942-13.942-13.942h-307.303c-7.688 0-13.942 6.255-13.942 13.942v174.338c-8.364 1.309-14.791 8.542-14.791 17.268v28.155c0 9.649 7.851 17.5 17.5 17.5h19.541c1.61 16.845 15.836 30.063 33.096 30.063 10.329 0 19.631-4.758 25.752-12.241 6.103 7.466 15.378 12.241 25.751 12.241 17.26 0 31.486-13.219 33.096-30.063h27.931c4.143 0 7.5-3.357 7.5-7.5s-3.358-7.5-7.501-7.5zm-152.875-221.204h305.187v13.981h-305.187zm58.562 234.167c-.593 9.589-8.594 17.101-18.216 17.101-10.064 0-18.252-8.188-18.252-18.251 0-10.064 8.188-18.252 18.252-18.252 9.571 0 17.569 7.469 18.209 17.003.01.145.045.282.063.424-.007.275-.021.548-.021.825 0 .257.014.511.02.767-.015.129-.047.252-.055.383zm33.287 17.101c-10.064 0-18.252-8.188-18.252-18.251 0-10.064 8.188-18.252 18.252-18.252s18.252 8.188 18.252 18.252c0 10.063-8.188 18.251-18.252 18.251z"/><path d="m70.137 355.883h-.948c-4.143 0-7.5 3.357-7.5 7.5s3.357 7.5 7.5 7.5h.948c4.143 0 7.5-3.357 7.5-7.5s-3.358-7.5-7.5-7.5z"/><path d="m121.64 355.883h-.948c-4.143 0-7.5 3.357-7.5 7.5s3.357 7.5 7.5 7.5h.948c4.143 0 7.5-3.357 7.5-7.5s-3.358-7.5-7.5-7.5z"/><path d="m268.623 355.883h-.947c-4.143 0-7.5 3.357-7.5 7.5s3.357 7.5 7.5 7.5h.947c4.143 0 7.5-3.357 7.5-7.5s-3.357-7.5-7.5-7.5z"/><path d="m320.126 355.883h-.947c-4.143 0-7.5 3.357-7.5 7.5s3.357 7.5 7.5 7.5h.947c4.143 0 7.5-3.357 7.5-7.5s-3.357-7.5-7.5-7.5z"/><path d="m505.545 257.08-8.67-7.055-13.559-61.123c-.011-.056-.025-.11-.037-.165l-4.62-20.828c-1.789-8.073-8.815-13.711-17.085-13.711h-28.741v-13.842c0-4.143-3.357-7.5-7.5-7.5s-7.5 3.357-7.5 7.5v13.842h-6v-31.176c0-4.143-3.357-7.5-7.5-7.5s-7.5 3.357-7.5 7.5v31.176h-5.447c-9.649 0-17.5 7.851-17.5 17.5v78.187h-23.908v-27.218c0-4.143-3.357-7.5-7.5-7.5s-7.5 3.357-7.5 7.5v55.879h-18.636v-94.745c0-6.659-5.418-12.077-12.077-12.077h-17.75c-6.659 0-12.077 5.418-12.077 12.077v94.745h-14.599v-94.745c0-6.659-5.418-12.077-12.077-12.077h-17.75c-6.659 0-12.076 5.418-12.076 12.077v97.668c0 6.659 5.417 12.077 12.076 12.077h104.966v9.869h-239.644c-4.143 0-7.5 3.357-7.5 7.5s3.357 7.5 7.5 7.5h278.552v33.155h-22.683c-4.775-12.519-16.901-21.439-31.076-21.439-10.376 0-19.654 4.779-25.756 12.25-6.128-7.486-15.436-12.25-25.747-12.25-14.176 0-26.301 8.92-31.076 21.439h-20.88c-4.143 0-7.5 3.357-7.5 7.5s3.357 7.5 7.5 7.5h18.86c1.61 16.845 15.836 30.063 33.096 30.063 10.35 0 19.645-4.752 25.76-12.232 6.103 7.46 15.375 12.232 25.743 12.232 17.26 0 31.486-13.219 33.096-30.063l54.928.001c1.61 16.844 15.835 30.063 33.095 30.063s31.485-13.218 33.096-30.063h20.16c9.649 0 17.5-7.851 17.5-17.5v-78.417c-.002-5.288-2.355-10.235-6.457-13.574zm-216.107-70.356h11.904v91.822h-11.904zm-56.502 0h11.903v91.822h-11.903zm214.566 31.054c-4.143 0-7.5 3.357-7.5 7.5v21.421h-7.502v-48.841h37.438l10.834 48.841h-25.771v-21.421c.001-4.142-3.356-7.5-7.499-7.5zm-56.116-48.58h5.447v24.99h-7.947v-22.49c0-1.379 1.121-2.5 2.5-2.5zm-41.408 95.687h23.908v13.661h-23.908zm38.908 0h7.947v13.661h-7.947zm-38.908 38.53v-9.869h23.908v9.869zm-63.132 61.01c-.54 9.649-8.544 17.209-18.223 17.209-10.064 0-18.252-8.188-18.252-18.251 0-10.064 8.188-18.252 18.252-18.252 9.57 0 17.569 7.469 18.21 17.002.01.149.044.289.063.435-.007.272-.021.542-.021.815 0 .231.013.459.018.69-.013.118-.041.231-.047.352zm33.28 17.209c-10.063 0-18.251-8.188-18.251-18.251 0-10.064 8.188-18.252 18.251-18.252 10.064 0 18.252 8.188 18.252 18.252 0 10.063-8.188 18.251-18.252 18.251zm121.118 0c-10.063 0-18.251-8.188-18.251-18.251 0-10.064 8.188-18.252 18.251-18.252 10.064 0 18.252 8.188 18.252 18.252 0 10.063-8.187 18.251-18.252 18.251zm53.256-30.063h-22.179c-4.775-12.52-16.901-21.44-31.077-21.44s-26.301 8.921-31.076 21.44h-21.282v-58.025h15.447c4.143 0 7.5-3.357 7.5-7.5v-28.661c0-4.143-3.357-7.5-7.5-7.5h-15.447v-40.696h15.447c4.143 0 7.5-3.357 7.5-7.5v-32.49h49.741c1.182 0 2.185.805 2.44 1.958l2.596 11.702h-41.61c-4.143 0-7.5 3.357-7.5 7.5v63.841c0 4.143 3.357 7.5 7.5 7.5h62.456l8.621 7.016c.587.477.923 1.184.923 1.939v27.534h-20c-4.143 0-7.5 3.357-7.5 7.5s3.357 7.5 7.5 7.5h20v5h-9.88c-4.143 0-7.5 3.357-7.5 7.5s3.357 7.5 7.5 7.5h9.88v15.883c0 1.378-1.121 2.499-2.5 2.499z"/><path d="m441.244 355.883h-.947c-4.143 0-7.5 3.357-7.5 7.5s3.357 7.5 7.5 7.5h.947c4.143 0 7.5-3.357 7.5-7.5s-3.357-7.5-7.5-7.5z"/><path d="m60.505 171.724c-6.659 0-12.077 5.418-12.077 12.077v97.668c0 6.659 5.418 12.077 12.077 12.077h17.75c6.659 0 12.076-5.418 12.076-12.077v-97.668c0-6.659-5.417-12.077-12.076-12.077zm14.826 106.822h-11.903v-91.822h11.903z"/><path d="m117.007 171.724c-6.659 0-12.077 5.418-12.077 12.077v97.668c0 6.659 5.418 12.077 12.077 12.077h17.75c6.659 0 12.077-5.418 12.077-12.077v-97.668c0-6.659-5.418-12.077-12.077-12.077zm14.827 106.822h-11.904v-91.822h11.904z"/><path d="m173.51 171.724c-6.659 0-12.077 5.418-12.077 12.077v97.668c0 6.659 5.418 12.077 12.077 12.077h17.75c6.659 0 12.077-5.418 12.077-12.077v-97.668c0-6.659-5.418-12.077-12.077-12.077zm14.827 106.822h-11.904v-91.822h11.904z"/><path d="m199.654 330.131h-18.77c-4.143 0-7.5 3.357-7.5 7.5s3.357 7.5 7.5 7.5h18.77c4.143 0 7.5-3.357 7.5-7.5s-3.357-7.5-7.5-7.5z"/></g></svg>